<?xml version="1.0" encoding="utf-8"?>
<!-- Generator: Adobe Illustrator 23.0.3, SVG Export Plug-In . SVG Version: 6.00 Build 0)  -->
<svg version="1.1" id="Layer_1" xmlns="http://www.w3.org/2000/svg" xmlns:xlink="http://www.w3.org/1999/xlink" x="0px" y="0px"
	 viewBox="0 0 360 1906" style="enable-background:new 0 0 360 1906;" xml:space="preserve">
<style type="text/css">
	.st0{fill:#F6F6F6;}
	.st1{clip-path:url(#SVGID_2_);fill:#E8E8E7;}
	.st2{fill:#BDBDBD;}
	.st3{clip-path:url(#SVGID_4_);fill:#E8E8E7;}
	.st4{fill:#FFFFFF;}
	.st5{font-family:'Inter-Bold';}
	.st6{font-size:16px;}
	.st7{opacity:0.6;}
	.st8{fill:#231F20;}
	.st9{font-size:18px;}
	.st10{clip-path:url(#SVGID_6_);fill:#E8E8E7;}
	.st11{clip-path:url(#SVGID_8_);fill:#E8E8E7;}
	.st12{clip-path:url(#SVGID_10_);fill:#E8E8E7;}
	.st13{clip-path:url(#SVGID_12_);fill:#E8E8E7;}
	.st14{clip-path:url(#SVGID_14_);fill:#E8E8E7;}
	.st15{clip-path:url(#SVGID_16_);fill:#E8E8E7;}
	.st16{fill:#010101;}
	.st17{fill:#231F20;stroke:#FFFFFF;stroke-width:2;stroke-miterlimit:10;}
	.st18{font-family:'Inter-Medium';}
	.st19{font-size:11.3571px;}
	.st20{fill:none;stroke:#CCCACB;stroke-miterlimit:10;}
	.st21{font-size:12.104px;}
	.st22{font-family:'Inter-ExtraLight';}
	.st23{font-size:9.6832px;}
	.st24{fill:none;stroke:#231F20;stroke-miterlimit:10;}
	.st25{fill:none;}
	.st26{font-size:12px;}
	.st27{font-family:'Inter-Regular';}
	.st28{font-size:10px;}
	.st29{opacity:0.3;fill:#231F20;}
	.st30{font-family:'Inter-Light';}
	.st31{font-size:12.5806px;}
	.st32{font-family:'Inter-Thin';}
	.st33{font-size:14px;}
	.st34{font-family:'FontAwesome';}
	.st35{font-size:17px;}
	.st36{opacity:0.5;fill:#231F20;}
	.st37{font-size:18.8358px;}
	.st38{fill:#292929;}
	.st39{fill:#FFFFFF;stroke:#231F20;stroke-miterlimit:10;}
</style>
<g>
	<path d="M5.8,344.8c0-14.1,11.4-25.5,25.5-25.5h292c14.1,0,25.5,11.4,25.5,25.5c0,14.1-11.4,25.5-25.5,25.5h-292
		C17.2,370.3,5.8,358.9,5.8,344.8z"/>
	<text transform="matrix(1 0 0 1 127.5785 350.8994)" class="st4 st5 st6">Tienda Online</text>
</g>
<text transform="matrix(1 0 0 1 24.8424 596.0172)" class="st8 st5 st9">Productos destacados</text>
<g>
	<g>
		<path class="st8" d="M43.6,64.4L43.6,64.4c-11,0-20-9-20-20v0c0-11,9-20,20-20h0c11,0,20,9,20,20v0C63.6,55.5,54.7,64.4,43.6,64.4
			z"/>
		<g>
			<path class="st4" d="M54.4,35.9v1.8c0,0.2-0.1,0.5-0.3,0.6c-0.2,0.2-0.4,0.3-0.6,0.3H33.2c-0.2,0-0.5-0.1-0.6-0.3
				c-0.2-0.2-0.3-0.4-0.3-0.6v-1.8c0-0.2,0.1-0.5,0.3-0.6C32.7,35,33,35,33.2,35h20.3c0.2,0,0.5,0.1,0.6,0.3
				C54.3,35.4,54.4,35.6,54.4,35.9z M54.4,43.3v1.8c0,0.2-0.1,0.5-0.3,0.6C54,45.9,53.7,46,53.5,46H33.2c-0.2,0-0.5-0.1-0.6-0.3
				c-0.2-0.2-0.3-0.4-0.3-0.6v-1.8c0-0.2,0.1-0.5,0.3-0.6c0.2-0.2,0.4-0.3,0.6-0.3h20.3c0.2,0,0.5,0.1,0.6,0.3
				C54.3,42.8,54.4,43,54.4,43.3z M54.4,50.6v1.8c0,0.2-0.1,0.5-0.3,0.6c-0.2,0.2-0.4,0.3-0.6,0.3H33.2c-0.2,0-0.5-0.1-0.6-0.3
				c-0.2-0.2-0.3-0.4-0.3-0.6v-1.8c0-0.2,0.1-0.5,0.3-0.6c0.2-0.2,0.4-0.3,0.6-0.3h20.3c0.2,0,0.5,0.1,0.6,0.3
				C54.3,50.2,54.4,50.4,54.4,50.6z"/>
		</g>
	</g>
	<g>
		<g>
			<g>
				<g>
					<path class="st16" d="M314.3,50.3c-2.2,0-3.9,1.8-3.9,3.9c0,2.2,1.8,3.9,3.9,3.9c2.2,0,3.9-1.8,3.9-3.9
						C318.2,52,316.4,50.3,314.3,50.3z M314.3,55.8c-0.9,0-1.6-0.7-1.6-1.6c0-0.9,0.7-1.6,1.6-1.6c0.9,0,1.6,0.7,1.6,1.6
						C315.9,55,315.1,55.8,314.3,55.8z"/>
					<path class="st16" d="M325.9,50.3c-2.2,0-3.9,1.8-3.9,3.9c0,2.2,1.8,3.9,3.9,3.9c2.2,0,3.9-1.8,3.9-3.9
						C329.8,52,328.1,50.3,325.9,50.3z M325.9,55.8c-0.9,0-1.6-0.7-1.6-1.6c0-0.9,0.7-1.6,1.6-1.6s1.6,0.7,1.6,1.6
						C327.5,55,326.8,55.8,325.9,55.8z"/>
					<path class="st16" d="M332.7,34.7c-0.2-0.3-0.6-0.4-0.9-0.4h-20.6l-1.1-5.4c-0.1-0.5-0.5-0.8-0.9-0.9l-4.7-0.9
						c-0.6-0.1-1.3,0.3-1.4,0.9s0.3,1.3,0.9,1.4l3.9,0.7l3.5,17.5c0.1,0.6,0.6,0.9,1.2,0.9H329c0.5,0,1-0.4,1.1-0.9l2.7-11.9
						C333,35.3,332.9,35,332.7,34.7z M328.1,46.1h-14.6l-1.9-9.5h18.7L328.1,46.1z"/>
				</g>
			</g>
		</g>
		<circle class="st17" cx="327.7" cy="28.9" r="10"/>
		<text transform="matrix(1 0 0 1 324.4099 32.3008)" class="st4 st18 st19">0</text>
	</g>
	
		<image style="overflow:visible;" width="633" height="290" xlink:href="BF34C7D4.jpg"  transform="matrix(0.2101 0 0 0.2101 117.4744 10.9743)">
	</image>
</g>
<rect x="0.3" y="84.9" class="st0" width="359.5" height="208.4"/>
<polyline class="st20" points="0.3,84.9 359.8,293.3 0.3,293.3 359.8,84.9 "/>
<rect x="126.8" y="125.8" class="st0" width="116" height="133.4"/>
<text transform="matrix(1 0 0 1 142.1773 159.0005)"><tspan x="0" y="0" class="st8 st5 st21">* Carrusel con</tspan><tspan x="0" y="14.5" class="st8 st5 st21">   mensajes</tspan><tspan x="0" y="29" class="st8 st5 st21">   destacados</tspan><tspan x="0" y="55.2" class="st8 st22 st23">Ej. De Temporada</tspan><tspan x="0" y="66.8" class="st8 st22 st23">Mensaje aprendizaje </tspan><tspan x="0" y="78.4" class="st8 st22 st23">Juegos y edades</tspan></text>
<g>
	<circle class="st8" cx="132.8" cy="274.4" r="7.6"/>
	<circle class="st24" cx="168.2" cy="274.4" r="7.6"/>
	<circle class="st24" cx="203.6" cy="274.4" r="7.6"/>
	<circle class="st24" cx="238.9" cy="274.4" r="7.6"/>
</g>
<g>
	<g>
		<g>
			<text transform="matrix(1 0 0 1 80.7878 442.4531)" class="st8 st5 st21">Información  Entregas y tiempos de entrega</text>
		</g>
		<path class="st16" d="M58.7,444.7v-2c0-1.2-0.9-2.1-2.1-2.1h-9.8v-0.2c0-1.5-1.3-2.8-2.8-2.8H25.7c-1.5,0-2.8,1.3-2.8,2.8v19.7
			c0,1.5,1.3,2.8,2.8,2.8h1.5c0.5,2.2,2.4,3.8,4.8,3.8s4.3-1.6,4.8-3.8H47c0.5,2.2,2.4,3.8,4.8,3.8c2.4,0,4.3-1.7,4.8-3.9
			c1.2-0.3,2.2-1.4,2.2-2.7v-7.7c0-0.2,0-0.4-0.1-0.5l-2.4-5.1h0.4C57.8,446.8,58.7,445.8,58.7,444.7L58.7,444.7z M31.9,464.6
			c-1.5,0-2.8-1.3-2.8-2.8c0-1.5,1.2-2.8,2.8-2.8c1.5,0,2.8,1.3,2.8,2.8C34.7,463.4,33.5,464.6,31.9,464.6z M44.8,460.8h-8
			c-0.5-2.2-2.4-3.8-4.8-3.8s-4.3,1.6-4.8,3.8h-1.5c-0.4,0-0.7-0.3-0.7-0.7v-19.7c0-0.4,0.3-0.7,0.7-0.7h18.4c0.4,0,0.7,0.3,0.7,0.7
			V460.8z M46.9,446.8h7l2.2,4.6l0,0h-9.1C46.9,450.7,46.9,447.5,46.9,446.8L46.9,446.8z M51.7,464.6c-1.5,0-2.8-1.3-2.8-2.8
			c0-1.5,1.2-2.8,2.8-2.8c1.5,0,2.8,1.3,2.8,2.8C54.5,463.4,53.3,464.6,51.7,464.6z M56.6,453.5v6.6c0,0.2-0.1,0.3-0.2,0.4
			c-0.6-2.1-2.5-3.6-4.7-3.6c-2.3,0-4.3,1.6-4.8,3.8h-0.1v-7.3H56.6z M46.9,444.7v-2h9.8v2C55.7,444.7,47.8,444.7,46.9,444.7z"/>
		<g>
			<path class="st8" d="M86.5,465.2l-3.7,3.7c-0.1,0.1-0.1,0.1-0.2,0.1c-0.1,0-0.2,0-0.2-0.1l-0.8-0.8c-0.1-0.1-0.1-0.1-0.1-0.2
				c0-0.1,0-0.2,0.1-0.2l2.6-2.6l-2.6-2.6c-0.1-0.1-0.1-0.1-0.1-0.2c0-0.1,0-0.2,0.1-0.2l0.8-0.8c0.1-0.1,0.1-0.1,0.2-0.1
				c0.1,0,0.2,0,0.2,0.1l3.7,3.7c0.1,0.1,0.1,0.1,0.1,0.2S86.6,465.2,86.5,465.2z"/>
		</g>
		<rect x="91.1" y="458.9" class="st25" width="245.5" height="28.4"/>
		<text transform="matrix(1 0 0 1 91.075 467.633)"><tspan x="0" y="0" class="st8 st22 st26">Lorem ipsum dolor sit amet, consectetuer </tspan><tspan x="0" y="14.4" class="st8 st22 st26">adipiscing elit, sed diam nonummy nibh </tspan></text>
		<g>
			<path class="st8" d="M86.5,507l-3.7,3.7c-0.1,0.1-0.1,0.1-0.2,0.1c-0.1,0-0.2,0-0.2-0.1l-0.8-0.8c-0.1-0.1-0.1-0.1-0.1-0.2
				c0-0.1,0-0.2,0.1-0.2l2.6-2.6l-2.6-2.6c-0.1-0.1-0.1-0.1-0.1-0.2c0-0.1,0-0.2,0.1-0.2l0.8-0.8c0.1-0.1,0.1-0.1,0.2-0.1
				c0.1,0,0.2,0,0.2,0.1l3.7,3.7c0.1,0.1,0.1,0.1,0.1,0.2C86.6,506.9,86.6,506.9,86.5,507z"/>
		</g>
		<rect x="91.1" y="500.7" class="st25" width="247" height="26.8"/>
		<text transform="matrix(1 0 0 1 91.075 509.4105)"><tspan x="0" y="0" class="st8 st22 st26">Lorem ipsum dolor sit amet, consectetuer </tspan><tspan x="0" y="14.4" class="st8 st22 st26">adipiscing elit, sed diam nonummy nibh </tspan></text>
	</g>
	<rect x="-1.9" y="399.4" class="st25" width="362.9" height="156.1"/>
</g>
<g>
	<path class="st7" d="M16.4,1274.8c0-14.1,10.9-25.5,24.4-25.5h279.4c13.5,0,24.4,11.4,24.4,25.5s-10.9,25.5-24.4,25.5H40.8
		C27.4,1300.3,16.4,1288.8,16.4,1274.8z"/>
	<text transform="matrix(1 0 0 1 148.1765 1280.8257)" class="st4 st5 st6">Ver mas</text>
</g>
<g>
	<path class="st0" d="M20.9,637.9c0-6.1,4.9-11,11-11H161c6.1,0,11,4.9,11,11V767c0,6.1-4.9,11-11,11H31.9c-6.1,0-11-4.9-11-11
		V637.9z"/>
	<text transform="matrix(1 0 0 1 46.8214 898.4172)"><tspan x="0" y="0" class="st8 st5 st26">18 cuotas</tspan><tspan x="56.8" y="0" class="st8 st27 st28"> sin interés</tspan></text>
	<g>
		<rect x="21.8" y="861" class="st29" width="147.8" height="22.2"/>
		<text transform="matrix(1 0 0 1 69.4848 875.5973)" class="st4 st30 st31">15% OFF</text>
	</g>
	<text transform="matrix(1 0 0 1 119.579 848.8422)" class="st8 st5 st9">$500</text>
	<rect x="20.3" y="793.5" class="st25" width="148.5" height="40.9"/>
	<text transform="matrix(1 0 0 1 46.861 803.6976)"><tspan x="0" y="0" class="st8 st32 st33">Nombre Item </tspan><tspan x="-10.5" y="16.8" class="st8 st32 st33">juego #1 lorem</tspan></text>
	<text transform="matrix(1 0 0 1 141.2441 651.7891)" class="st8 st34 st35"></text>
</g>
<g>
	<g>
		<path class="st0" d="M194,637.9c0-6.1,4.9-11,11-11h129.1c6.1,0,11,4.9,11,11V767c0,6.1-4.9,11-11,11H205c-6.1,0-11-4.9-11-11
			V637.9z"/>
		<text transform="matrix(1 0 0 1 219.6213 898.4172)"><tspan x="0" y="0" class="st8 st5 st26">18 cuotas</tspan><tspan x="56.8" y="0" class="st8 st27 st28"> sin interés</tspan></text>
		<g>
			<rect x="196.9" y="861" class="st29" width="147.8" height="22.2"/>
			<text transform="matrix(1 0 0 1 244.5585 875.5973)" class="st4 st30 st31">15% OFF</text>
		</g>
		<text transform="matrix(1 0 0 1 290.4421 848.8422)" class="st8 st5 st9">$360</text>
		<rect x="195.4" y="793.5" class="st25" width="148.5" height="40.9"/>
		<text transform="matrix(1 0 0 1 221.9347 803.6976)"><tspan x="0" y="0" class="st8 st32 st33">Nombre Item </tspan><tspan x="-12" y="16.8" class="st8 st32 st33">juego #2 lorem</tspan></text>
	</g>
	<g>
		<rect x="195.4" y="635.9" class="st36" width="69.7" height="22.2"/>
		<text transform="matrix(1 0 0 1 210.0743 650.5341)" class="st4 st30 st31">Nuevo</text>
	</g>
	<text transform="matrix(1 0 0 1 316.1289 652.4043)" class="st8 st34 st37"></text>
</g>
<g>
	<path class="st0" d="M20.9,942.6c0-6.1,4.9-11,11-11H161c6.1,0,11,4.9,11,11v129.1c0,6.1-4.9,11-11,11H31.9c-6.1,0-11-4.9-11-11
		V942.6z"/>
	<text transform="matrix(1 0 0 1 46.8214 1203.0909)"><tspan x="0" y="0" class="st8 st5 st26">18 cuotas</tspan><tspan x="56.8" y="0" class="st8 st27 st28"> sin interés</tspan></text>
	<g>
		<rect x="21.8" y="1165.6" class="st29" width="147.8" height="22.2"/>
		<text transform="matrix(1 0 0 1 69.4848 1180.271)" class="st4 st30 st31">15% OFF</text>
	</g>
	<text transform="matrix(1 0 0 1 119.579 1153.5159)" class="st8 st5 st9">$500</text>
	<rect x="20.3" y="1098.2" class="st25" width="148.5" height="40.9"/>
	<text transform="matrix(1 0 0 1 46.861 1108.3713)"><tspan x="0" y="0" class="st8 st32 st33">Nombre Item </tspan><tspan x="-10.5" y="16.8" class="st8 st32 st33">juego #1 lorem</tspan></text>
	<text transform="matrix(1 0 0 1 141.2441 956.4627)" class="st8 st34 st35"></text>
</g>
<g>
	<g>
		<path class="st0" d="M194,942.6c0-6.1,4.9-11,11-11h129.1c6.1,0,11,4.9,11,11v129.1c0,6.1-4.9,11-11,11H205c-6.1,0-11-4.9-11-11
			V942.6z"/>
		<text transform="matrix(1 0 0 1 219.6213 1203.0909)"><tspan x="0" y="0" class="st8 st5 st26">18 cuotas</tspan><tspan x="56.8" y="0" class="st8 st27 st28"> sin interés</tspan></text>
		<g>
			<rect x="196.9" y="1165.6" class="st29" width="147.8" height="22.2"/>
			<text transform="matrix(1 0 0 1 244.5585 1180.271)" class="st4 st30 st31">15% OFF</text>
		</g>
		<text transform="matrix(1 0 0 1 290.4421 1153.5159)" class="st8 st5 st9">$360</text>
		<rect x="195.4" y="1098.2" class="st25" width="148.5" height="40.9"/>
		<text transform="matrix(1 0 0 1 221.9347 1108.3713)"><tspan x="0" y="0" class="st8 st32 st33">Nombre Item </tspan><tspan x="-12" y="16.8" class="st8 st32 st33">juego #2 lorem</tspan></text>
	</g>
	<g>
		<rect x="195.4" y="940.6" class="st36" width="69.7" height="22.2"/>
		<text transform="matrix(1 0 0 1 210.0743 955.2078)" class="st4 st30 st31">Nuevo</text>
	</g>
	<text transform="matrix(1 0 0 1 316.1289 957.078)" class="st8 st34 st37"></text>
</g>
<text transform="matrix(1 0 0 1 19.9157 1651.0735)" class="st4 st5 st6">INFORMACIÓN</text>
<g>
	<rect x="-1.7" y="1419.2" class="st38" width="362.3" height="317.2"/>
	<text transform="matrix(1 0 0 1 19.9157 1515.0313)"><tspan x="0" y="0" class="st4 st30 st33">Acerca Nuestro</tspan><tspan x="0" y="35.2" class="st4 st30 st33">Contacto</tspan><tspan x="0" y="70.4" class="st4 st30 st33">Tienda ONLINE</tspan></text>
	<g>
		<path class="st39" d="M254.5,1481.1c0-12.8-10.4-23.2-23.2-23.2c-12.8,0-23.2,10.4-23.2,23.2s10.4,23.2,23.2,23.2
			c0.1,0,0.3,0,0.4,0v-18.1h-5v-5.8h5v-4.3c0-5,3-7.7,7.5-7.7c2.1,0,3.9,0.2,4.5,0.2v5.2h-3.1c-2.4,0-2.9,1.1-2.9,2.8v3.7h5.8
			l-0.8,5.8h-5v17.2C247.4,1500.7,254.5,1491.7,254.5,1481.1z"/>
		<g>
			<path class="st39" d="M297.4,1481.1c0,2.6-2.1,4.8-4.8,4.8s-4.8-2.1-4.8-4.8s2.1-4.8,4.8-4.8S297.4,1478.5,297.4,1481.1z"/>
			<path class="st39" d="M303.8,1472.7c-0.2-0.6-0.6-1.2-1.1-1.7c-0.5-0.5-1-0.8-1.7-1.1c-0.5-0.2-1.3-0.4-2.7-0.5
				c-1.5-0.1-2-0.1-5.8-0.1c-3.8,0-4.3,0-5.8,0.1c-1.4,0.1-2.2,0.3-2.7,0.5c-0.6,0.2-1.2,0.6-1.7,1.1c-0.5,0.5-0.8,1-1.1,1.7
				c-0.2,0.5-0.4,1.3-0.5,2.7c-0.1,1.5-0.1,2-0.1,5.8c0,3.8,0,4.3,0.1,5.8c0.1,1.4,0.3,2.2,0.5,2.7c0.2,0.6,0.6,1.2,1.1,1.7
				c0.5,0.5,1,0.8,1.7,1.1c0.5,0.2,1.3,0.4,2.7,0.5c1.5,0.1,2,0.1,5.8,0.1c3.8,0,4.3,0,5.8-0.1c1.4-0.1,2.2-0.3,2.7-0.5
				c1.3-0.5,2.2-1.5,2.7-2.7c0.2-0.5,0.4-1.3,0.5-2.7c0.1-1.5,0.1-2,0.1-5.8c0-3.8,0-4.3-0.1-5.8
				C304.2,1473.9,304,1473.2,303.8,1472.7z M292.6,1488.5c-4.1,0-7.4-3.3-7.4-7.4s3.3-7.4,7.4-7.4c4.1,0,7.4,3.3,7.4,7.4
				S296.7,1488.5,292.6,1488.5z M300.3,1475.2c-1,0-1.7-0.8-1.7-1.7c0-1,0.8-1.7,1.7-1.7s1.7,0.8,1.7,1.7
				C302,1474.4,301.2,1475.2,300.3,1475.2z"/>
			<path class="st39" d="M292.6,1456.1c-13.8,0-25,11.2-25,25c0,13.8,11.2,25,25,25c13.8,0,25-11.2,25-25
				C317.6,1467.3,306.4,1456.1,292.6,1456.1z M306.9,1487.1c-0.1,1.5-0.3,2.6-0.7,3.5c-0.7,1.9-2.3,3.5-4.2,4.2
				c-0.9,0.4-2,0.6-3.5,0.7c-1.5,0.1-2,0.1-5.9,0.1c-3.9,0-4.4,0-5.9-0.1c-1.5-0.1-2.6-0.3-3.5-0.7c-1-0.4-1.8-0.9-2.5-1.7
				c-0.7-0.7-1.3-1.6-1.7-2.5c-0.4-0.9-0.6-2-0.7-3.5c-0.1-1.5-0.1-2-0.1-5.9c0-3.9,0-4.4,0.1-5.9c0.1-1.5,0.3-2.6,0.7-3.5
				c0.4-1,0.9-1.8,1.7-2.5c0.7-0.7,1.6-1.3,2.5-1.7c0.9-0.4,2-0.6,3.5-0.7c1.5-0.1,2-0.1,5.9-0.1s4.4,0,5.9,0.1
				c1.5,0.1,2.6,0.3,3.5,0.7c1,0.4,1.8,0.9,2.5,1.7c0.7,0.7,1.3,1.6,1.7,2.5c0.4,0.9,0.6,2,0.7,3.5c0.1,1.5,0.1,2,0.1,5.9
				C307,1485,307,1485.5,306.9,1487.1z"/>
		</g>
	</g>
	
		<image style="overflow:visible;" width="1351" height="996" xlink:href="BF34C7D5.jpg"  transform="matrix(0.2679 0 0 0.2679 -1.8653 1639.0421)">
	</image>
</g>
</svg>
