<?xml version="1.0" encoding="utf-8"?>
<!-- Generator: Adobe Illustrator 23.0.3, SVG Export Plug-In . SVG Version: 6.00 Build 0)  -->
<svg version="1.1" id="Layer_1" xmlns="http://www.w3.org/2000/svg" xmlns:xlink="http://www.w3.org/1999/xlink" x="0px" y="0px"
	 viewBox="0 0 360 812" style="enable-background:new 0 0 360 812;" xml:space="preserve">
<style type="text/css">
	.st0{fill:#F6F6F6;}
	.st1{clip-path:url(#SVGID_2_);fill:#E8E8E7;}
	.st2{fill:#BDBDBD;}
	.st3{clip-path:url(#SVGID_4_);fill:#E8E8E7;}
	.st4{fill:#FFFFFF;}
	.st5{font-family:'Inter-Bold';}
	.st6{font-size:16px;}
	.st7{opacity:0.6;}
	.st8{font-family:'FontAwesome';}
	.st9{font-size:19.3519px;}
	.st10{font-size:26px;}
	.st11{fill:#231F20;}
	.st12{font-family:'Inter-ExtraLight';}
	.st13{font-size:12.0871px;}
	.st14{clip-path:url(#SVGID_6_);fill:#E8E8E7;}
	.st15{clip-path:url(#SVGID_8_);fill:#E8E8E7;}
	.st16{clip-path:url(#SVGID_10_);fill:#E8E8E7;}
	.st17{clip-path:url(#SVGID_12_);fill:#E8E8E7;}
	.st18{clip-path:url(#SVGID_14_);fill:#E8E8E7;}
	.st19{clip-path:url(#SVGID_16_);fill:#E8E8E7;}
	.st20{fill:#010101;}
	.st21{fill:#231F20;stroke:#FFFFFF;stroke-width:2;stroke-miterlimit:10;}
	.st22{fill:none;stroke:#CCCACB;stroke-miterlimit:10;}
	.st23{fill:none;stroke:#231F20;stroke-miterlimit:10;}
	.st24{fill:none;}
	.st25{font-family:'Inter-Medium';}
	.st26{font-size:10.2754px;}
	.st27{opacity:0.3;fill:#231F20;}
	.st28{opacity:0.5;fill:#231F20;}
	.st29{fill:#292929;}
	.st30{fill:#FFFFFF;stroke:#231F20;stroke-miterlimit:10;}
</style>
<rect x="-0.2" y="507.8" class="st0" width="360" height="306.2"/>
<path class="st0" d="M16,202c0-4.4,3.6-8,8-8h312c4.4,0,8,3.6,8,8v34c0,4.4-3.6,8-8,8H24c-4.4,0-8-3.6-8-8V202z"/>
<g>
	<defs>
		<path id="SVGID_1_" d="M16,202c0-4.4,3.6-8,8-8h312c4.4,0,8,3.6,8,8v34c0,4.4-3.6,8-8,8H24c-4.4,0-8-3.6-8-8V202z"/>
	</defs>
	<clipPath id="SVGID_2_">
		<use xlink:href="#SVGID_1_"  style="overflow:visible;"/>
	</clipPath>
	<path class="st1" d="M24,193c-5,0-9,4-9,9h2c0-3.9,3.1-7,7-7V193z M336,195c3.9,0,7,3.1,7,7h2c0-5-4-9-9-9V195z M343,236
		c0,3.9-3.1,7-7,7v2c5,0,9-4,9-9H343z M24,243c-3.9,0-7-3.1-7-7h-2c0,5,4,9,9,9V243z M17,236v-34h-2v34H17z M336,243H24v2h312V243z
		 M343,202v34h2v-34H343z M24,195h312v-2H24V195z"/>
</g>
<path class="st2" d="M71.7,213.4H70V225h1.7V213.4z M66.9,214.9c0.6,0,1.1-0.5,1.1-1s-0.5-1-1.1-1c-0.6,0-1.1,0.5-1.1,1
	S66.3,214.9,66.9,214.9z M66,225h1.7v-8.7H66V225z M59.8,223.8c-1,0-1.7-0.4-1.7-1.3c0-0.9,0.8-1.2,1.8-1.4c0.6-0.1,1.9-0.2,2.1-0.5
	v1.1C62.1,222.9,61.2,223.8,59.8,223.8z M59.5,225.2c1.4,0,2.3-0.7,2.6-1.4h0.1v1.2h1.7v-5.8c0-2.5-2-3-3.4-3c-1.6,0-3,0.6-3.6,2.2
	l1.6,0.4c0.3-0.6,0.9-1.2,2-1.2c1.1,0,1.7,0.6,1.7,1.6v0c0,0.6-0.6,0.6-2.2,0.8c-1.7,0.2-3.3,0.6-3.3,2.6
	C56.5,224.3,57.8,225.2,59.5,225.2z M42.8,225h1.7v-5.4c0-1.2,0.8-2,1.8-2c0.9,0,1.6,0.6,1.6,1.6v5.8h1.7v-5.6
	c0-1.1,0.6-1.8,1.8-1.8c0.9,0,1.6,0.5,1.6,1.7v5.7h1.7v-5.9c0-2-1.1-3-2.7-3c-1.3,0-2.2,0.6-2.6,1.5h-0.1c-0.4-1-1.2-1.5-2.3-1.5
	c-1.2,0-2,0.6-2.4,1.5h-0.1v-1.4h-1.6V225z M33.3,225h7.4v-1.5H35v-3.6h5.2v-1.5H35v-3.5h5.5v-1.5h-7.3V225z"/>
<path class="st0" d="M16,268c0-4.4,3.6-8,8-8h312c4.4,0,8,3.6,8,8v34c0,4.4-3.6,8-8,8H24c-4.4,0-8-3.6-8-8V268z"/>
<g>
	<defs>
		<path id="SVGID_3_" d="M16,268c0-4.4,3.6-8,8-8h312c4.4,0,8,3.6,8,8v34c0,4.4-3.6,8-8,8H24c-4.4,0-8-3.6-8-8V268z"/>
	</defs>
	<clipPath id="SVGID_4_">
		<use xlink:href="#SVGID_3_"  style="overflow:visible;"/>
	</clipPath>
	<path class="st3" d="M24,259c-5,0-9,4-9,9h2c0-3.9,3.1-7,7-7V259z M336,261c3.9,0,7,3.1,7,7h2c0-5-4-9-9-9V261z M343,302
		c0,3.9-3.1,7-7,7v2c5,0,9-4,9-9H343z M24,309c-3.9,0-7-3.1-7-7h-2c0,5,4,9,9,9V309z M17,302v-34h-2v34H17z M336,309H24v2h312V309z
		 M343,268v34h2v-34H343z M24,261h312v-2H24V261z"/>
</g>
<path class="st2" d="M115.7,289.8c-1,0-1.7-0.4-1.7-1.3c0-0.9,0.8-1.2,1.8-1.4c0.6-0.1,1.9-0.2,2.1-0.5v1.1
	C117.9,288.9,117.1,289.8,115.7,289.8z M115.3,291.2c1.4,0,2.3-0.7,2.6-1.4h0.1v1.2h1.7v-5.8c0-2.5-2-3-3.4-3c-1.6,0-3,0.6-3.6,2.2
	l1.6,0.4c0.3-0.6,0.9-1.2,2-1.2c1.1,0,1.7,0.6,1.7,1.6v0c0,0.6-0.6,0.6-2.2,0.8c-1.7,0.2-3.3,0.6-3.3,2.6
	C112.4,290.3,113.6,291.2,115.3,291.2z M105.1,281.2c0-0.5,0.3-0.9,0.7-0.9c0.8,0,1,0.8,2.1,0.8c1,0,1.8-0.8,1.8-2l-1.1-0.1
	c0,0.5-0.3,0.9-0.7,0.9c-0.8,0-1.1-0.8-2.1-0.8c-1,0-1.8,0.8-1.8,2.1L105.1,281.2z M104.9,285.8c0-1.4,0.9-2.2,2-2.2
	c1.2,0,1.9,0.8,1.9,2v5.3h1.7v-5.6c0-2.2-1.2-3.3-3-3.3c-1.3,0-2.2,0.6-2.6,1.5h-0.1v-1.4h-1.6v8.7h1.7V285.8z M95.1,285.9
	c0.1-1.2,1-2.3,2.3-2.3c1.3,0,2.2,1,2.2,2.3H95.1z M97.6,291.2c1.9,0,3.3-0.9,3.6-2.4l-1.6-0.3c-0.3,0.8-1,1.2-2,1.2
	c-1.5,0-2.4-0.9-2.5-2.6h6.2v-0.6c0-3.2-1.9-4.4-3.9-4.4c-2.4,0-4,1.9-4,4.5C93.4,289.4,95,291.2,97.6,291.2z M91.8,284.4
	c-0.4-1.4-1.4-2.2-3.3-2.2c-2,0-3.4,1-3.4,2.6c0,1.2,0.8,2.1,2.4,2.4l1.5,0.3c0.8,0.2,1.2,0.6,1.2,1.1c0,0.7-0.7,1.2-1.8,1.2
	c-1,0-1.7-0.4-1.9-1.3l-1.6,0.3c0.3,1.5,1.6,2.4,3.5,2.4c2.1,0,3.6-1.1,3.6-2.7c0-1.2-0.8-2-2.4-2.4l-1.4-0.3
	c-1-0.2-1.4-0.6-1.4-1.1c0-0.7,0.7-1.1,1.7-1.1c1.1,0,1.5,0.6,1.7,1.2L91.8,284.4z M79,289.8c-1,0-1.7-0.4-1.7-1.3
	c0-0.9,0.8-1.2,1.8-1.4c0.6-0.1,1.9-0.2,2.1-0.5v1.1C81.3,288.9,80.5,289.8,79,289.8z M78.7,291.2c1.4,0,2.3-0.7,2.6-1.4h0.1v1.2H83
	v-5.8c0-2.5-2-3-3.4-3c-1.6,0-3,0.6-3.6,2.2l1.6,0.4c0.3-0.6,0.9-1.2,2-1.2c1.1,0,1.7,0.6,1.7,1.6v0c0,0.6-0.6,0.6-2.2,0.8
	c-1.7,0.2-3.3,0.6-3.3,2.6C75.7,290.3,77,291.2,78.7,291.2z M70.1,291h1.7v-5.3c0-1.1,0.9-2,2.1-2c0.4,0,0.8,0.1,0.9,0.1v-1.6
	c-0.2,0-0.5,0-0.7,0c-1,0-1.9,0.6-2.2,1.5h-0.1v-1.4h-1.6V291z M68.2,282.3h-1.8v-2.1h-1.7v2.1h-1.3v1.4h1.3v5.2
	c0,1.6,1.2,2.4,2.5,2.3c0.5,0,0.9-0.1,1.1-0.2l-0.3-1.4c-0.1,0-0.3,0.1-0.6,0.1c-0.6,0-1-0.2-1-1.2v-4.8h1.8V282.3z M56.2,285.8
	c0-1.4,0.9-2.2,2-2.2c1.2,0,1.9,0.8,1.9,2v5.3h1.7v-5.6c0-2.2-1.2-3.3-3-3.3c-1.3,0-2.2,0.6-2.6,1.5h-0.1v-1.4h-1.6v8.7h1.7V285.8z
	 M48.6,289.8c-1.6,0-2.4-1.4-2.4-3.1c0-1.7,0.8-3.1,2.4-3.1c1.6,0,2.3,1.4,2.3,3.1C50.9,288.3,50.2,289.8,48.6,289.8z M48.6,291.2
	c2.5,0,4.1-1.8,4.1-4.5c0-2.7-1.6-4.5-4.1-4.5s-4.1,1.8-4.1,4.5C44.5,289.4,46.1,291.2,48.6,291.2z M42.9,283.1
	c-0.4-2.5-2.3-3.9-4.8-3.9c-3,0-5.2,2.3-5.2,6c0,3.7,2.2,6,5.2,6c2.6,0,4.4-1.6,4.8-3.9l-1.8,0c-0.3,1.5-1.6,2.3-3,2.3
	c-2,0-3.5-1.5-3.5-4.4c0-2.8,1.5-4.4,3.5-4.4c1.5,0,2.7,0.8,3,2.3H42.9z"/>
<g>
	<path d="M16,413c0-14.1,10.9-25.5,24.3-25.5h278.2c13.4,0,24.3,11.4,24.3,25.5c0,14.1-10.9,25.5-24.3,25.5H40.3
		C26.9,438.5,16,427.1,16,413z"/>
	<text transform="matrix(1 0 0 1 142.3573 419.1099)" class="st4 st5 st6">Ingresar</text>
</g>
<g>
	<g>
		<path class="st7" d="M11.5,585.7c0-14.1,11.1-25.5,24.9-25.5h285c13.7,0,24.9,11.4,24.9,25.5s-11.1,25.5-24.9,25.5h-285
			C22.6,611.2,11.5,599.8,11.5,585.7z"/>
		<text transform="matrix(1 0 0 1 101.4311 591.8046)" class="st4 st5 st6">Ingresar con facebook</text>
	</g>
	<g>
		<path class="st7" d="M11.5,650.3c0-14.1,11.1-25.5,24.9-25.5h285c13.7,0,24.9,11.4,24.9,25.5s-11.1,25.5-24.9,25.5h-285
			C22.6,675.8,11.5,664.4,11.5,650.3z"/>
		<text transform="matrix(1 0 0 1 101.4311 656.3309)" class="st4 st5 st6">Ingresar con Google</text>
	</g>
</g>
<text transform="matrix(1 0 0 1 308.7155 292.3986)" class="st2 st8 st9"> </text>
<path d="M269.6,367.8c0.6,0,1.1-0.5,1.1-1.1c0-0.6-0.5-1-1.1-1c-0.6,0-1.1,0.5-1.1,1C268.5,367.3,269,367.8,269.6,367.8z
	 M268.7,364.8h1.6v-0.1c0-1,0.3-1.5,1.1-2c0.9-0.5,1.4-1.2,1.4-2.3c0-1.6-1.3-2.6-3.1-2.6c-1.7,0-3,0.9-3.1,2.8h1.7
	c0-0.9,0.7-1.3,1.4-1.3c0.7,0,1.3,0.5,1.3,1.2c0,0.7-0.4,1.1-1,1.5c-0.8,0.5-1.3,1.1-1.3,2.8V364.8z M261.9,366.5
	c-0.7,0-1.2-0.3-1.2-1c0-0.7,0.6-0.9,1.4-1.1c0.5-0.1,1.4-0.2,1.6-0.4v0.9C263.6,365.8,262.9,366.5,261.9,366.5z M261.4,367.8
	c1.2,0,1.8-0.5,2.2-1.2h0.1v1h1.7v-4.9c0-1.9-1.6-2.5-3-2.5c-1.6,0-2.7,0.7-3.1,2l1.6,0.2c0.2-0.5,0.7-0.9,1.5-0.9
	c0.8,0,1.2,0.4,1.2,1.1v0c0,0.5-0.5,0.5-1.8,0.7c-1.4,0.2-2.8,0.6-2.8,2.2C258.9,367,260,367.8,261.4,367.8z M252.9,359.4
	c0-0.4,0.2-0.7,0.6-0.7c0.3,0,0.5,0.1,0.7,0.3c0.3,0.2,0.6,0.4,1.1,0.4c0.9,0,1.5-0.7,1.5-1.8l-1,0c0,0.4-0.2,0.7-0.6,0.7
	c-0.3,0-0.5-0.1-0.7-0.3c-0.3-0.2-0.6-0.4-1-0.4c-0.9,0-1.5,0.7-1.5,1.8L252.9,359.4z M252.8,363.3c0-1.1,0.6-1.7,1.6-1.7
	c0.9,0,1.4,0.6,1.4,1.6v4.4h1.7V363c0-1.8-1-2.8-2.5-2.8c-1.1,0-1.9,0.5-2.2,1.3h-0.1v-1.3H251v7.4h1.7V363.3z M244.4,363.3
	c0.1-0.9,0.7-1.7,1.8-1.7c1,0,1.7,0.7,1.7,1.7H244.4z M246.3,367.8c1.7,0,2.9-0.8,3.2-2.1l-1.6-0.2c-0.2,0.6-0.8,1-1.6,1
	c-1.1,0-1.9-0.7-1.9-2h5.1v-0.5c0-2.6-1.6-3.7-3.4-3.7c-2.1,0-3.5,1.6-3.5,3.8C242.7,366.3,244.1,367.8,246.3,367.8z M241.4,362.2
	c-0.2-1.2-1.2-2-3-2c-1.8,0-3,0.9-3,2.2c0,1.1,0.7,1.8,2.1,2.1l1.3,0.3c0.7,0.1,1,0.4,1,0.8c0,0.5-0.5,0.9-1.4,0.9
	c-0.8,0-1.3-0.3-1.5-1l-1.7,0.2c0.2,1.4,1.4,2.2,3.2,2.2c1.8,0,3.1-1,3.1-2.4c0-1.1-0.7-1.7-2.1-2l-1.3-0.3c-0.7-0.2-1-0.4-1-0.9
	c0-0.5,0.5-0.8,1.3-0.8c0.8,0,1.2,0.4,1.4,0.9L241.4,362.2z M230.4,366.5c-0.7,0-1.2-0.3-1.2-1c0-0.7,0.6-0.9,1.4-1.1
	c0.5-0.1,1.4-0.2,1.6-0.4v0.9C232.1,365.8,231.5,366.5,230.4,366.5z M230,367.8c1.2,0,1.8-0.5,2.2-1.2h0.1v1h1.7v-4.9
	c0-1.9-1.6-2.5-3-2.5c-1.6,0-2.7,0.7-3.1,2l1.6,0.2c0.2-0.5,0.7-0.9,1.5-0.9c0.8,0,1.2,0.4,1.2,1.1v0c0,0.5-0.5,0.5-1.8,0.7
	c-1.4,0.2-2.8,0.6-2.8,2.2C227.5,367,228.6,367.8,230,367.8z M222.6,367.7h1.7v-4.3c0-0.9,0.7-1.6,1.7-1.6c0.3,0,0.7,0.1,0.8,0.1
	v-1.6c-0.2,0-0.4,0-0.6,0c-0.8,0-1.6,0.5-1.8,1.3h-0.1v-1.2h-1.7V367.7z M221.2,360.3h-1.5v-1.8H218v1.8h-1v1.3h1v4.1
	c0,1.4,1,2.1,2.3,2c0.5,0,0.8-0.1,1-0.2l-0.3-1.4c-0.1,0-0.3,0.1-0.5,0.1c-0.4,0-0.8-0.2-0.8-0.9v-3.8h1.5V360.3z M211,363.3
	c0-1.1,0.6-1.7,1.6-1.7c0.9,0,1.4,0.6,1.4,1.6v4.4h1.7V363c0-1.8-1-2.8-2.5-2.8c-1.1,0-1.9,0.5-2.2,1.3h-0.1v-1.3h-1.7v7.4h1.7
	V363.3z M204.3,366.4c-1.2,0-1.8-1.1-1.8-2.4s0.6-2.4,1.8-2.4c1.2,0,1.8,1.1,1.8,2.4S205.4,366.4,204.3,366.4z M204.2,367.8
	c2.2,0,3.5-1.5,3.5-3.8c0-2.3-1.4-3.8-3.5-3.8c-2.2,0-3.5,1.5-3.5,3.8C200.7,366.3,202.1,367.8,204.2,367.8z M196.4,367.8
	c1.9,0,3-1.1,3.2-2.7h-1.7c-0.1,0.8-0.7,1.2-1.5,1.2c-1.1,0-1.8-0.9-1.8-2.4c0-1.5,0.7-2.4,1.8-2.4c0.8,0,1.3,0.5,1.5,1.2h1.7
	c-0.1-1.6-1.4-2.7-3.2-2.7c-2.2,0-3.5,1.6-3.5,3.8C192.9,366.2,194.2,367.8,196.4,367.8z M186.3,364.6c0,1.1-0.8,1.7-1.6,1.7
	c-0.8,0-1.4-0.6-1.4-1.5v-4.4h-1.7v4.7c0,1.8,1,2.8,2.5,2.8c1.1,0,1.9-0.6,2.2-1.4h0.1v1.3h1.7v-7.4h-1.7V364.6z M180.2,360.3h-1.5
	v-1.8H177v1.8h-1v1.3h1v4.1c0,1.4,1,2.1,2.3,2c0.5,0,0.8-0.1,1-0.2l-0.3-1.4c-0.1,0-0.3,0.1-0.5,0.1c-0.4,0-0.8-0.2-0.8-0.9v-3.8
	h1.5V360.3z M166.6,363.3c0.1-0.9,0.7-1.7,1.8-1.7c1,0,1.7,0.7,1.7,1.7H166.6z M168.4,367.8c1.7,0,2.9-0.8,3.2-2.1l-1.6-0.2
	c-0.2,0.6-0.8,1-1.6,1c-1.1,0-1.9-0.7-1.9-2h5.1v-0.5c0-2.6-1.6-3.7-3.4-3.7c-2.1,0-3.5,1.6-3.5,3.8
	C164.8,366.3,166.2,367.8,168.4,367.8z M163.8,360.3h-1.5v-1.8h-1.7v1.8h-1v1.3h1v4.1c0,1.4,1,2.1,2.3,2c0.5,0,0.8-0.1,1-0.2
	l-0.3-1.4c-0.1,0-0.3,0.1-0.5,0.1c-0.4,0-0.8-0.2-0.8-0.9v-3.8h1.5V360.3z M158.5,362.2c-0.2-1.2-1.2-2-3-2c-1.8,0-3,0.9-3,2.2
	c0,1.1,0.7,1.8,2.1,2.1l1.3,0.3c0.7,0.1,1,0.4,1,0.8c0,0.5-0.5,0.9-1.4,0.9c-0.8,0-1.3-0.3-1.5-1l-1.7,0.2c0.2,1.4,1.4,2.2,3.2,2.2
	c1.8,0,3.1-1,3.1-2.4c0-1.1-0.7-1.7-2.1-2l-1.3-0.3c-0.7-0.2-1-0.4-1-0.9c0-0.5,0.5-0.8,1.3-0.8c0.8,0,1.2,0.4,1.4,0.9L158.5,362.2z
	 M147.5,366.5c-0.7,0-1.2-0.3-1.2-1c0-0.7,0.6-0.9,1.4-1.1c0.5-0.1,1.4-0.2,1.6-0.4v0.9C149.2,365.8,148.5,366.5,147.5,366.5z
	 M147,367.8c1.2,0,1.8-0.5,2.2-1.2h0.1v1h1.7v-4.9c0-1.9-1.6-2.5-3-2.5c-1.6,0-2.7,0.7-3.1,2l1.6,0.2c0.2-0.5,0.7-0.9,1.5-0.9
	c0.8,0,1.2,0.4,1.2,1.1v0c0,0.5-0.5,0.5-1.8,0.7c-1.4,0.2-2.8,0.6-2.8,2.2C144.6,367,145.6,367.8,147,367.8z M139.6,366.4
	c-1.1,0-1.8-1-1.8-2.4c0-1.4,0.6-2.4,1.8-2.4c1.1,0,1.7,0.9,1.7,2.4C141.3,365.4,140.7,366.4,139.6,366.4z M139.1,367.8
	c1.3,0,1.8-0.8,2.1-1.3h0.1v1.2h1.7v-9.8h-1.7v3.7h-0.1c-0.3-0.5-0.8-1.3-2.1-1.3c-1.7,0-3,1.3-3,3.8
	C136.1,366.4,137.4,367.8,139.1,367.8z M133.7,359.2c0.6,0,1-0.4,1-0.9c0-0.5-0.5-0.9-1-0.9c-0.6,0-1,0.4-1,0.9
	C132.7,358.8,133.2,359.2,133.7,359.2z M132.9,367.7h1.7v-7.4h-1.7V367.7z M131.7,360.3h-1.8l-1.7,5.5H128l-1.7-5.5h-1.9l2.6,7.4
	h1.9L131.7,360.3z M123.3,357.8h-1.7v9.8h1.7V357.8z M118.1,362.7c0,2.2-1.1,3.5-2.7,3.5c-1.6,0-2.7-1.2-2.7-3.5
	c0-2.2,1.1-3.5,2.7-3.5C117,359.3,118.1,360.5,118.1,362.7z M119.9,362.7c0-3.2-1.9-5.1-4.5-5.1c-2.6,0-4.5,1.9-4.5,5.1
	c0,3.2,1.9,5.1,4.5,5.1C118,367.8,119.9,365.9,119.9,362.7z M106.8,360.3c-0.6,0-1.1,0.5-1.1,1.1c0,0.6,0.5,1,1.1,1
	c0.6,0,1.1-0.5,1.1-1C107.8,360.7,107.4,360.3,106.8,360.3z M107.6,363.2H106v0.1c0,1-0.3,1.5-1.1,2c-0.9,0.5-1.4,1.2-1.4,2.3
	c0,1.6,1.3,2.6,3.1,2.6c1.7,0,3-0.9,3.1-2.8h-1.7c0,0.9-0.7,1.3-1.4,1.3c-0.7,0-1.3-0.5-1.3-1.2c0-0.7,0.4-1.1,1-1.5
	c0.8-0.5,1.3-1.1,1.3-2.8V363.2z"/>
<text transform="matrix(1 0 0 1 99.8708 144.7778)" class="st5 st10">Iniciá sesión</text>
<text transform="matrix(1 0 0 1 88.5054 479.3015)"><tspan x="0" y="0" class="st11 st12 st13" style="text-decoration: underline;">¿No tenés cuenta? </tspan><tspan x="108.1" y="0" class="st11 st5 st13" style="text-decoration: underline;">Creá tu cuenta</tspan></text>
<g>
	<g>
		<path class="st11" d="M43.6,64.4L43.6,64.4c-11,0-20-9-20-20v0c0-11,9-20,20-20h0c11,0,20,9,20,20v0
			C63.6,55.5,54.7,64.4,43.6,64.4z"/>
		<g>
			<path class="st4" d="M54.4,35.9v1.8c0,0.2-0.1,0.5-0.3,0.6c-0.2,0.2-0.4,0.3-0.6,0.3H33.2c-0.2,0-0.5-0.1-0.6-0.3
				c-0.2-0.2-0.3-0.4-0.3-0.6v-1.8c0-0.2,0.1-0.5,0.3-0.6C32.7,35,33,35,33.2,35h20.3c0.2,0,0.5,0.1,0.6,0.3
				C54.3,35.4,54.4,35.6,54.4,35.9z M54.4,43.3v1.8c0,0.2-0.1,0.5-0.3,0.6C54,45.9,53.7,46,53.5,46H33.2c-0.2,0-0.5-0.1-0.6-0.3
				c-0.2-0.2-0.3-0.4-0.3-0.6v-1.8c0-0.2,0.1-0.5,0.3-0.6c0.2-0.2,0.4-0.3,0.6-0.3h20.3c0.2,0,0.5,0.1,0.6,0.3
				C54.3,42.8,54.4,43,54.4,43.3z M54.4,50.6v1.8c0,0.2-0.1,0.5-0.3,0.6c-0.2,0.2-0.4,0.3-0.6,0.3H33.2c-0.2,0-0.5-0.1-0.6-0.3
				c-0.2-0.2-0.3-0.4-0.3-0.6v-1.8c0-0.2,0.1-0.5,0.3-0.6c0.2-0.2,0.4-0.3,0.6-0.3h20.3c0.2,0,0.5,0.1,0.6,0.3
				C54.3,50.2,54.4,50.4,54.4,50.6z"/>
		</g>
	</g>
	<g>
		<g>
			<g>
				<g>
					<path class="st20" d="M314.3,50.3c-2.2,0-3.9,1.8-3.9,3.9c0,2.2,1.8,3.9,3.9,3.9c2.2,0,3.9-1.8,3.9-3.9
						C318.2,52,316.4,50.3,314.3,50.3z M314.3,55.8c-0.9,0-1.6-0.7-1.6-1.6c0-0.9,0.7-1.6,1.6-1.6c0.9,0,1.6,0.7,1.6,1.6
						C315.9,55,315.1,55.8,314.3,55.8z"/>
					<path class="st20" d="M325.9,50.3c-2.2,0-3.9,1.8-3.9,3.9c0,2.2,1.8,3.9,3.9,3.9c2.2,0,3.9-1.8,3.9-3.9
						C329.8,52,328.1,50.3,325.9,50.3z M325.9,55.8c-0.9,0-1.6-0.7-1.6-1.6c0-0.9,0.7-1.6,1.6-1.6s1.6,0.7,1.6,1.6
						C327.5,55,326.8,55.8,325.9,55.8z"/>
					<path class="st20" d="M332.7,34.7c-0.2-0.3-0.6-0.4-0.9-0.4h-20.6l-1.1-5.4c-0.1-0.5-0.5-0.8-0.9-0.9l-4.7-0.9
						c-0.6-0.1-1.3,0.3-1.4,0.9s0.3,1.3,0.9,1.4l3.9,0.7l3.5,17.5c0.1,0.6,0.6,0.9,1.2,0.9H329c0.5,0,1-0.4,1.1-0.9l2.7-11.9
						C333,35.3,332.9,35,332.7,34.7z M328.1,46.1h-14.6l-1.9-9.5h18.7L328.1,46.1z"/>
				</g>
			</g>
		</g>
		<circle class="st21" cx="334.2" cy="31.2" r="9.1"/>
		<text transform="matrix(1 0 0 1 330.2363 35.3013)" class="st4 st25 st26">0</text>
	</g>
	
		<image style="overflow:visible;" width="633" height="290" xlink:href="526738D.jpg"  transform="matrix(0.2101 0 0 0.2101 117.4744 10.9743)">
	</image>
</g>
</svg>
